<svg width="12" height="13" viewBox="0 0 12 13" fill="none" xmlns="http://www.w3.org/2000/svg">
<g clip-path="url(#clip0_133_1118)">
<path d="M10.9511 6.95556C10.9001 6.81763 10.8093 6.699 10.6909 6.61552C10.5725 6.53203 10.4322 6.48767 10.2887 6.48836H8.49988L8.49988 4.10834C8.49973 3.94704 8.43734 3.7924 8.3264 3.67834C8.21546 3.56429 8.06503 3.50015 7.90813 3.5H4.09162C3.93473 3.50015 3.7843 3.56429 3.67336 3.67834C3.56241 3.7924 3.50002 3.94704 3.49988 4.10834L3.49988 6.48836H1.71108C1.5678 6.48836 1.42786 6.53293 1.30967 6.6162C1.19147 6.69948 1.10055 6.81756 1.04884 6.95494C0.997125 7.09231 0.987046 7.24256 1.01993 7.38593C1.0528 7.5293 1.1271 7.6591 1.23306 7.75826L5.60228 11.8417C5.71109 11.9436 5.853 12.0001 6.00019 12C6.14738 11.9999 6.28922 11.9433 6.39791 11.8412L10.7662 7.75873C10.8729 7.66015 10.9478 7.53042 10.9809 7.38688C11.0139 7.24335 11.0036 7.09286 10.9511 6.95556Z" fill="#4285F4"/>
<rect x="3.50049" y="0.5" width="5" height="2" rx="0.5" fill="#4285F4"/>
</g>
<defs>
<clipPath id="clip0_133_1118">
<rect width="12" height="12" fill="white" transform="translate(0 0.5)"/>
</clipPath>
</defs>
</svg>
