<svg width="54" height="52" viewBox="0 0 54 52" fill="none" xmlns="http://www.w3.org/2000/svg">
<ellipse cx="27" cy="26" rx="27" ry="26" fill="white"/>
<g clip-path="url(#clip0_133_878)">
<path fill-rule="evenodd" clip-rule="evenodd" d="M39.8063 26.2803C39.8063 25.4058 39.7232 24.565 39.5687 23.7578H27.2614V28.5281H34.2941C33.9912 30.0696 33.0705 31.3756 31.6865 32.2501V35.3443H35.9098C38.3808 33.1974 39.8063 30.0359 39.8063 26.2803Z" fill="#4285F4"/>
<path fill-rule="evenodd" clip-rule="evenodd" d="M27.2613 38.332C30.7896 38.332 33.7476 37.2277 35.9097 35.3442L31.6865 32.25C30.5163 32.9899 29.0195 33.4272 27.2613 33.4272C23.8578 33.4272 20.9769 31.2579 19.9493 28.343H15.5836V31.5381C17.7338 35.5685 22.153 38.332 27.2613 38.332Z" fill="#34A853"/>
<path fill-rule="evenodd" clip-rule="evenodd" d="M19.9494 28.3432C19.688 27.6033 19.5395 26.8129 19.5395 26.0001C19.5395 25.1873 19.688 24.3969 19.9494 23.657V20.4619H15.5836C14.6986 22.1267 14.1937 24.0102 14.1937 26.0001C14.1937 27.99 14.6986 29.8735 15.5836 31.5383L19.9494 28.3432Z" fill="#FBBC05"/>
<path fill-rule="evenodd" clip-rule="evenodd" d="M27.2613 18.5727C29.1799 18.5727 30.9024 19.195 32.2567 20.4169L36.0048 16.8799C33.7417 14.89 30.7836 13.668 27.2613 13.668C22.153 13.668 17.7338 16.4315 15.5836 20.4618L19.9493 23.6569C20.9769 20.7421 23.8578 18.5727 27.2613 18.5727Z" fill="#EA4335"/>
</g>
<defs>
<clipPath id="clip0_133_878">
<rect x="14.1937" y="13.668" width="25.6126" height="24.664" rx="6" fill="white"/>
</clipPath>
</defs>
</svg>
