<svg width="24" height="24" viewBox="0 0 24 24" fill="none" xmlns="http://www.w3.org/2000/svg">
<path d="M18.111 14.2225C17.4809 14.223 16.8604 14.3768 16.3031 14.6706C15.7457 14.9645 15.2682 15.3896 14.9118 15.9091L9.48765 13.46C9.87291 12.5297 9.8744 11.4847 9.49181 10.5533L14.9085 8.09163C15.4367 8.85559 16.2213 9.40493 17.1198 9.64C18.0184 9.87507 18.9714 9.7803 19.8061 9.37288C20.6407 8.96546 21.3018 8.27238 21.6692 7.41935C22.0366 6.56632 22.0861 5.60986 21.8088 4.72344C21.5314 3.83702 20.9455 3.07938 20.1574 2.58792C19.3693 2.09647 18.4311 1.90377 17.5131 2.04478C16.5951 2.18578 15.758 2.65115 15.1537 3.35646C14.5494 4.06178 14.2179 4.96033 14.2193 5.88913C14.2228 6.10896 14.2451 6.32809 14.286 6.54413L8.52765 9.1608C7.9746 8.64265 7.28224 8.29733 6.53563 8.16726C5.78901 8.0372 5.02067 8.12806 4.32499 8.42868C3.62931 8.72929 3.03658 9.22658 2.61964 9.85943C2.2027 10.4923 1.9797 11.2331 1.97804 11.991C1.97637 12.7489 2.19612 13.4907 2.61027 14.1254C3.02443 14.7601 3.61496 15.2599 4.30931 15.5636C5.00367 15.8673 5.7716 15.9615 6.51878 15.8347C7.26595 15.708 7.95983 15.3657 8.51515 14.85L14.2885 17.4566C14.2484 17.6725 14.2264 17.8913 14.2226 18.1108C14.2225 18.8801 14.4505 19.6321 14.8777 20.2718C15.305 20.9115 15.9124 21.4101 16.6231 21.7046C17.3338 21.9991 18.1158 22.0761 18.8703 21.9261C19.6249 21.7761 20.3179 21.4056 20.8619 20.8617C21.4058 20.3177 21.7763 19.6247 21.9263 18.8702C22.0763 18.1157 21.9992 17.3336 21.7048 16.6229C21.4103 15.9122 20.9117 15.3048 20.272 14.8776C19.6323 14.4503 18.8803 14.2223 18.111 14.2225ZM18.111 3.66663C18.5506 3.66646 18.9804 3.79667 19.346 4.04078C19.7116 4.28489 19.9966 4.63194 20.1649 5.03804C20.3332 5.44413 20.3774 5.89103 20.2917 6.32221C20.206 6.75338 19.9944 7.14947 19.6837 7.46038C19.3729 7.77129 18.9769 7.98304 18.5457 8.06886C18.1146 8.15469 17.6676 8.11072 17.2615 7.94253C16.8553 7.77434 16.5082 7.48948 16.2639 7.12397C16.0197 6.75846 15.8893 6.32873 15.8893 5.88913C15.8898 5.29996 16.1239 4.73505 16.5405 4.31837C16.957 3.90169 17.5218 3.66729 18.111 3.66663ZM5.88931 14.2225C5.44971 14.2226 5.01993 14.0924 4.65433 13.8483C4.28873 13.6042 4.00374 13.2571 3.8354 12.8511C3.66705 12.445 3.62292 11.9981 3.70858 11.5669C3.79425 11.1357 4.00585 10.7396 4.31664 10.4287C4.62743 10.1178 5.02344 9.90605 5.45459 9.82023C5.88573 9.73441 6.33264 9.77837 6.7388 9.94656C7.14496 10.1148 7.49212 10.3996 7.73636 10.7651C7.98061 11.1306 8.11098 11.5604 8.11098 12C8.11032 12.5891 7.87607 13.1539 7.45959 13.5705C7.04311 13.9871 6.47841 14.2216 5.88931 14.2225ZM18.111 20.3333C17.6714 20.3333 17.2417 20.203 16.8762 19.9587C16.5107 19.7145 16.2259 19.3674 16.0577 18.9613C15.8894 18.5552 15.8454 18.1083 15.9312 17.6772C16.0169 17.2461 16.2286 16.8501 16.5394 16.5393C16.8503 16.2284 17.2463 16.0168 17.6774 15.931C18.1085 15.8452 18.5554 15.8893 18.9615 16.0575C19.3676 16.2257 19.7147 16.5106 19.9589 16.876C20.2031 17.2415 20.3335 17.6712 20.3335 18.1108C20.333 18.7001 20.0987 19.2652 19.682 19.6819C19.2653 20.0986 18.7003 20.3329 18.111 20.3333Z" fill="white"/>
</svg>
