<svg width="52" height="52" viewBox="0 0 52 52" fill="none" xmlns="http://www.w3.org/2000/svg">
<circle cx="26" cy="26" r="26" fill="white"/>
<g clip-path="url(#clip0_133_888)">
<path d="M36.7123 31.7038C36.3109 32.623 35.8356 33.469 35.285 34.2469C34.5345 35.3073 33.92 36.0413 33.4464 36.4489C32.7122 37.118 31.9256 37.4606 31.0833 37.4801C30.4786 37.4801 29.7494 37.3096 28.9005 36.9637C28.0489 36.6194 27.2662 36.4489 26.5506 36.4489C25.8001 36.4489 24.9951 36.6194 24.1341 36.9637C23.2718 37.3096 22.5772 37.4898 22.0461 37.5077C21.2384 37.5418 20.4332 37.1894 19.6296 36.4489C19.1167 36.0056 18.4751 35.2456 17.7066 34.1689C16.882 33.0192 16.204 31.686 15.6729 30.166C15.1041 28.5242 14.819 26.9344 14.819 25.3952C14.819 23.6321 15.2034 22.1115 15.9735 20.8372C16.5786 19.8136 17.3837 19.0062 18.3914 18.4135C19.399 17.8208 20.4878 17.5187 21.6603 17.4994C22.3019 17.4994 23.1432 17.696 24.1887 18.0825C25.2313 18.4703 25.9007 18.667 26.1942 18.667C26.4136 18.667 27.1573 18.437 28.4179 17.9786C29.6101 17.5535 30.6163 17.3774 31.4406 17.4468C33.6742 17.6254 35.3522 18.4979 36.4682 20.0699C34.4706 21.2693 33.4824 22.9493 33.5021 25.1044C33.5201 26.783 34.1346 28.1799 35.3424 29.289C35.8897 29.8038 36.501 30.2017 37.181 30.4842C37.0335 30.9081 36.8779 31.3141 36.7123 31.7038ZM31.5897 11.728C31.5897 13.0437 31.1046 14.2722 30.1378 15.4092C28.971 16.761 27.5597 17.5421 26.0293 17.4188C26.0098 17.261 25.9985 17.0949 25.9985 16.9203C25.9985 15.6572 26.5534 14.3055 27.5388 13.2002C28.0307 12.6406 28.6564 12.1753 29.4151 11.8041C30.1722 11.4385 30.8883 11.2363 31.5618 11.2017C31.5815 11.3776 31.5897 11.5535 31.5897 11.728V11.728Z" fill="black"/>
</g>
<defs>
<clipPath id="clip0_133_888">
<rect x="12.8459" y="11.2017" width="26.3083" height="26.3083" rx="6" fill="white"/>
</clipPath>
</defs>
</svg>
