<svg width="12" height="10" viewBox="0 0 12 10" fill="none" xmlns="http://www.w3.org/2000/svg">
<path d="M0.352933 9.5C0.158018 9.5 0 9.39569 0 9.267C0 8.29352 0.603013 7.5 2 7.5H10C11.397 7.5 12 8.29352 12 9.267C12 9.39568 11.842 9.5 11.6471 9.5H0.352933Z" fill="#1C5044"/>
<path fill-rule="evenodd" clip-rule="evenodd" d="M6.49998 1.50004C9.5938 1.63558 11 3.45086 11 6.14709C11 6.34203 10.842 6.50002 10.6471 6.50002H1.35293C1.15802 6.50002 1 6.34201 1 6.14709C1 3.45086 2.40616 1.63558 5.5 1.50004V1H4.76489C4.66674 1 4.58828 0.920243 4.58828 0.821871V0.178129C4.58828 0.0782413 4.66737 0 4.76489 0H7.23518C7.33334 0 7.41179 0.0797566 7.41179 0.178129V0.821871C7.41179 0.921759 7.33271 1 7.23518 1H6.5L6.49998 1.50004Z" fill="#1C5044"/>
</svg>
