<svg width="12" height="12" viewBox="0 0 12 12" fill="none" xmlns="http://www.w3.org/2000/svg">
<path d="M10.2562 10.235L10.6359 9.79792C10.8776 9.5558 11.0133 9.22789 11.0133 8.88604C11.0133 8.54419 10.8776 8.21628 10.6359 7.97417C10.623 7.96125 9.61904 7.19 9.61904 7.19C9.37809 6.96097 9.05803 6.83344 8.72537 6.83391C8.39271 6.83437 8.07301 6.9628 7.8327 7.1925L7.03738 7.86167C6.38818 7.59337 5.79845 7.19966 5.30206 6.70313C4.80567 6.20661 4.4124 5.61706 4.14484 4.96833L4.81248 4.17667C5.0427 3.93674 5.17146 3.61745 5.172 3.28517C5.17255 2.95289 5.04483 2.63318 4.8154 2.3925C4.8154 2.3925 4.04219 1.39125 4.02926 1.37833C3.79118 1.13906 3.46839 1.00293 3.13063 0.99934C2.79287 0.995754 2.46725 1.12501 2.22414 1.35917L1.74427 1.77583C-1.09068 5.06 5.01402 11.1088 8.41146 11C8.75453 11.002 9.09453 10.9353 9.41137 10.8039C9.72822 10.6725 10.0155 10.4791 10.2562 10.235Z" fill="#777777"/>
</svg>
