<svg width="24" height="24" viewBox="0 0 24 24" fill="none" xmlns="http://www.w3.org/2000/svg">
<path d="M15.0508 6.90909L8.94915 4L3.82933 6.50357C3.32019 6.75251 3 7.25222 3 7.79782V17.6194C3 18.1262 3.2766 18.5964 3.73011 18.8606C4.18358 19.1248 4.74859 19.1449 5.22147 18.9137L8.94915 17.0909L15.0508 20L20.1707 17.4964C20.6798 17.2475 21 16.7478 21 16.2022V6.38059C21 5.87382 20.7234 5.4036 20.2699 5.13939C19.8164 4.87517 19.2514 4.85506 18.7785 5.08629L15.0508 6.90909Z" stroke="white" stroke-width="1.5" stroke-miterlimit="10" stroke-linecap="square"/>
<path d="M8.9491 3.99991V17.0908" stroke="white" stroke-width="1.5" stroke-miterlimit="10"/>
<path d="M15.0509 6.90909V20" stroke="white" stroke-width="1.5" stroke-miterlimit="10"/>
</svg>
