<svg width="12" height="12" viewBox="0 0 12 12" fill="none" xmlns="http://www.w3.org/2000/svg">
<path d="M6 1C5.0111 1 4.0444 1.29324 3.22215 1.84265C2.39991 2.39206 1.75904 3.17295 1.3806 4.08658C1.00217 5.00021 0.90315 6.00555 1.09608 6.97545C1.289 7.94536 1.76521 8.83627 2.46447 9.53553C3.16373 10.2348 4.05465 10.711 5.02455 10.9039C5.99446 11.0969 6.99979 10.9978 7.91342 10.6194C8.82705 10.241 9.60794 9.6001 10.1573 8.77785C10.7068 7.95561 11 6.98891 11 6C10.9986 4.67436 10.4713 3.40342 9.53395 2.46605C8.59658 1.52868 7.32564 1.00143 6 1ZM6.41667 5.94958C6.41671 6.02021 6.3988 6.0897 6.36462 6.1515C6.33044 6.21331 6.2811 6.26541 6.22125 6.30292L4.62125 7.30292C4.57474 7.33197 4.52297 7.35158 4.46888 7.36063C4.41479 7.36967 4.35945 7.36797 4.30602 7.35563C4.25258 7.34329 4.20211 7.32054 4.15746 7.28869C4.11282 7.25684 4.07489 7.21651 4.04584 7.17C4.01678 7.12349 3.99717 7.07171 3.98813 7.01762C3.97908 6.96354 3.98078 6.9082 3.99312 6.85476C4.00546 6.80133 4.02821 6.75085 4.06006 6.70621C4.09191 6.66157 4.13224 6.62364 4.17875 6.59458L5.58334 5.71875V3.91667C5.58334 3.80616 5.62723 3.70018 5.70537 3.62204C5.78351 3.5439 5.8895 3.5 6 3.5C6.11051 3.5 6.21649 3.5439 6.29463 3.62204C6.37277 3.70018 6.41667 3.80616 6.41667 3.91667V5.94958Z" fill="#777777"/>
</svg>
