<svg width="50" height="72" viewBox="0 0 50 72" fill="none" xmlns="http://www.w3.org/2000/svg">
<circle cx="25" cy="67" r="4" fill="#05714A" stroke="white" stroke-width="2"/>
<path d="M41.6921 6.47343C39.2412 4.24862 36.369 2.5336 33.2439 1.42892C30.1189 0.324248 26.8039 -0.147856 23.4933 0.0402919C20.1827 0.22844 16.9431 1.07305 13.9644 2.52461C10.9858 3.97617 8.32807 6.00547 6.14704 8.49352C3.96601 10.9816 2.30559 13.8783 1.26311 17.0139C0.220638 20.1496 -0.182909 23.4609 0.0761326 26.7539C0.335174 30.0469 1.25159 33.2552 2.77166 36.1908C4.29172 39.1264 6.38484 41.7302 8.9283 43.8495C14.7432 48.6651 19.6017 55.3199 23.2529 61.9164C23.4314 62.2449 23.6959 62.5191 24.0183 62.7099C24.3407 62.9007 24.7089 63.0009 25.0839 63C25.4586 62.9998 25.8263 62.8986 26.148 62.7071C26.4696 62.5156 26.7332 62.2409 26.9108 61.9123L27.0811 61.5938C30.7584 55.0772 35.6069 48.4919 41.3849 43.7213C44.0624 41.4163 46.2158 38.5691 47.7012 35.3695C49.1867 32.17 49.9701 28.6916 49.9992 25.1666C50.0282 21.6416 49.3023 18.1509 47.8699 14.9275C46.4374 11.704 44.3313 8.82191 41.6921 6.47343Z" fill="#1C5044"/>
</svg>
