<svg width="40" height="50" viewBox="0 0 40 50" fill="none" xmlns="http://www.w3.org/2000/svg">
<path d="M33.3537 5.13765C31.3929 3.37192 29.0952 2.01079 26.5951 1.13407C24.0951 0.257339 21.4431 -0.117346 18.7946 0.0319777C16.1461 0.181301 13.5545 0.851628 11.1716 2.00366C8.78865 3.15569 6.66246 4.76624 4.91763 6.74089C3.17281 8.71554 1.84447 11.0145 1.01049 13.5031C0.17651 15.9917 -0.146327 18.6198 0.0609061 21.2333C0.268139 23.8467 1.00127 26.393 2.21732 28.7229C3.43338 31.0527 5.10787 33.1192 7.14264 34.8012C11.7946 38.6231 15.6814 43.9047 18.6023 49.14C18.7451 49.4007 18.9567 49.6183 19.2146 49.7698C19.4725 49.9212 19.7671 50.0008 20.0671 50C20.3669 49.9998 20.6611 49.9195 20.9184 49.7675C21.1757 49.6155 21.3866 49.3976 21.5287 49.1367L21.6648 48.884C24.6067 43.7121 28.4855 38.4856 33.1079 34.6994C35.25 32.8701 36.9726 30.6104 38.161 28.071C39.3493 25.5317 39.9761 22.7711 39.9993 19.9735C40.0226 17.1759 39.4419 14.4055 38.2959 11.8472C37.1499 9.2889 35.4651 7.00152 33.3537 5.13765Z" fill="#006F2C"/>
</svg>
